<?xml version="1.0" encoding="UTF-8"?>
<!DOCTYPE svg PUBLIC "-//W3C//DTD SVG 1.1//EN" "http://www.w3.org/Graphics/SVG/1.1/DTD/svg11.dtd">
<!-- Creator: CorelDRAW 2019 (64-Bit) -->
<svg xmlns="http://www.w3.org/2000/svg" xml:space="preserve" width="29.446mm" height="29.322mm" version="1.1" style="shape-rendering:geometricPrecision; text-rendering:geometricPrecision; image-rendering:optimizeQuality; fill-rule:evenodd; clip-rule:evenodd"
viewBox="0 0 2944.6 2932.2"
 xmlns:xlink="http://www.w3.org/1999/xlink"
 xmlns:xodm="http://www.corel.com/coreldraw/odm/2003">
 <defs>
  <style type="text/css">
   <![CDATA[
    .fil2 {fill:none}
    .fil0 {fill:#5CC6D0}
    .fil5 {fill:#FEFEFE}
    .fil1 {fill:#FFCC29}
    .fil4 {fill:#00AFEF;fill-rule:nonzero}
    .fil3 {fill:#FEFEFE;fill-rule:nonzero}
   ]]>
  </style>
    <clipPath id="id0">
     <path d="M1468.73 1.58c809.68,0 1466.03,656.35 1466.03,1466.03 0,162.93 -26.62,319.59 -75.68,466 -47.6,-26.08 -106.71,-35.88 -151.71,-2.99l-23.04 16.86 7.7 27.55c7.7,27.5 10.49,64.85 10.39,93.04 -0.29,67.79 -16.81,134.16 -54.46,191.17 -58.43,88.53 -173.82,122.3 -273.47,133.92 -376.8,43.77 -1098.98,-266.8 -1432.45,-120.83l-120.53 52.74c-162.25,-6.27 -322.54,24.75 -464.15,98.67 -221.06,-256.66 -354.68,-590.81 -354.68,-956.13 0,-809.68 656.34,-1466.03 1466.02,-1466.03l0.03 0zm622.28 2793.71l-6.37 2.99c-58.48,-22.25 -119.21,-53.87 -170.83,-80.24 -7.01,-3.58 -14.07,-7.21 -21.08,-10.83 25.24,12.5 50.64,24.75 76.12,36.57 40.59,18.82 81.12,36.13 122.1,51.52l0.06 -0.01zm-343.51 111.76c-90.24,17.4 -183.42,26.57 -278.76,26.57 -374.59,0 -716.25,-140.53 -975.41,-371.7 117.94,-21.71 243.03,-15.88 373.03,10.39 254.5,51.42 480.62,167.35 715.07,272.54 51.42,23.09 107.79,45.1 166.07,62.15l0 0.05zm-391.21 -457.63c83.48,32.74 164.9,69.65 243.47,107.79 34.85,16.96 69.46,34.36 103.92,51.96 -38.38,-20.29 -76.71,-40.49 -115.19,-60.24 -74.61,-38.28 -152.54,-71.37 -232.2,-99.56l0 0.05z"/>
    </clipPath>
 </defs>
 <g id="Слой_x0020_1">
  <metadata id="CorelCorpID_0Corel-Layer"/>
  <g id="_2124159337248">
   <path class="fil0" d="M1468.73 1.58c809.68,0 1466.03,656.35 1466.03,1466.03 0,162.93 -26.62,319.59 -75.68,466 -47.6,-26.08 -106.71,-35.88 -151.71,-2.99l-23.04 16.86 7.7 27.55c7.7,27.5 10.49,64.85 10.39,93.04 -0.29,67.79 -16.81,134.16 -54.46,191.17 -58.43,88.53 -173.82,122.3 -273.47,133.92 -376.8,43.77 -1098.98,-266.8 -1432.45,-120.83l-120.53 52.74c-162.25,-6.27 -322.54,24.75 -464.15,98.67 -221.06,-256.66 -354.68,-590.81 -354.68,-956.13 0,-809.68 656.34,-1466.03 1466.02,-1466.03l0.03 0zm622.28 2793.71l-6.37 2.99c-58.48,-22.25 -119.21,-53.87 -170.83,-80.24 -7.01,-3.58 -14.07,-7.21 -21.08,-10.83 25.24,12.5 50.64,24.75 76.12,36.57 40.59,18.82 81.12,36.13 122.1,51.52l0.06 -0.01zm-343.51 111.76c-90.24,17.4 -183.42,26.57 -278.76,26.57 -374.59,0 -716.25,-140.53 -975.41,-371.7 117.94,-21.71 243.03,-15.88 373.03,10.39 254.5,51.42 480.62,167.35 715.07,272.54 51.42,23.09 107.79,45.1 166.07,62.15l0 0.05zm-391.21 -457.63c83.48,32.74 164.9,69.65 243.47,107.79 34.85,16.96 69.46,34.36 103.92,51.96 -38.38,-20.29 -76.71,-40.49 -115.19,-60.24 -74.61,-38.28 -152.54,-71.37 -232.2,-99.56l0 0.05z"/>
   <g>
   </g>
   <g style="clip-path:url(#id0)">
    <g id="_588418311872">
     <circle class="fil1" cx="2213.46" cy="399.65" r="435.08"/>
    </g>
   </g>
   <path class="fil2" d="M1468.73 1.58c809.68,0 1466.03,656.35 1466.03,1466.03 0,162.93 -26.62,319.59 -75.68,466 -47.6,-26.08 -106.71,-35.88 -151.71,-2.99l-23.04 16.86 7.7 27.55c7.7,27.5 10.49,64.85 10.39,93.04 -0.29,67.79 -16.81,134.16 -54.46,191.17 -58.43,88.53 -173.82,122.3 -273.47,133.92 -376.8,43.77 -1098.98,-266.8 -1432.45,-120.83l-120.53 52.74c-162.25,-6.27 -322.54,24.75 -464.15,98.67 -221.06,-256.66 -354.68,-590.81 -354.68,-956.13 0,-809.68 656.34,-1466.03 1466.02,-1466.03l0.03 0zm622.28 2793.71l-6.37 2.99c-58.48,-22.25 -119.21,-53.87 -170.83,-80.24 -7.01,-3.58 -14.07,-7.21 -21.08,-10.83 25.24,12.5 50.64,24.75 76.12,36.57 40.59,18.82 81.12,36.13 122.1,51.52l0.06 -0.01zm-343.51 111.76c-90.24,17.4 -183.42,26.57 -278.76,26.57 -374.59,0 -716.25,-140.53 -975.41,-371.7 117.94,-21.71 243.03,-15.88 373.03,10.39 254.5,51.42 480.62,167.35 715.07,272.54 51.42,23.09 107.79,45.1 166.07,62.15l0 0.05zm-391.21 -457.63c83.48,32.74 164.9,69.65 243.47,107.79 34.85,16.96 69.46,34.36 103.92,51.96 -38.38,-20.29 -76.71,-40.49 -115.19,-60.24 -74.61,-38.28 -152.54,-71.37 -232.2,-99.56l0 0.05z"/>
   <path class="fil2" d="M1468.73 1.58c809.68,0 1466.03,656.35 1466.03,1466.03 0,162.93 -26.62,319.59 -75.68,466 -47.6,-26.08 -106.71,-35.88 -151.71,-2.99l-23.04 16.86 7.7 27.55c7.7,27.5 10.49,64.85 10.39,93.04 -0.29,67.79 -16.81,134.16 -54.46,191.17 -58.43,88.53 -173.82,122.3 -273.47,133.92 -376.8,43.77 -1098.98,-266.8 -1432.45,-120.83l-120.53 52.74c-162.25,-6.27 -322.54,24.75 -464.15,98.67 -221.06,-256.66 -354.68,-590.81 -354.68,-956.13 0,-809.68 656.34,-1466.03 1466.02,-1466.03l0.03 0zm622.28 2793.71l-6.37 2.99c-58.48,-22.25 -119.21,-53.87 -170.83,-80.24 -7.01,-3.58 -14.07,-7.21 -21.08,-10.83 25.24,12.5 50.64,24.75 76.12,36.57 40.59,18.82 81.12,36.13 122.1,51.52l0.06 -0.01zm-343.51 111.76c-90.24,17.4 -183.42,26.57 -278.76,26.57 -374.59,0 -716.25,-140.53 -975.41,-371.7 117.94,-21.71 243.03,-15.88 373.03,10.39 254.5,51.42 480.62,167.35 715.07,272.54 51.42,23.09 107.79,45.1 166.07,62.15l0 0.05zm-391.21 -457.63c83.48,32.74 164.9,69.65 243.47,107.79 34.85,16.96 69.46,34.36 103.92,51.96 -38.38,-20.29 -76.71,-40.49 -115.19,-60.24 -74.61,-38.28 -152.54,-71.37 -232.2,-99.56l0 0.05z"/>
   <path class="fil3" d="M594.35 1149.09c-36.81,-38.43 -81.27,-57.64 -133.33,-57.64 -52.06,0 -96.47,19.21 -133.33,57.64 -36.81,38.43 -55.24,85.14 -55.24,140.14 0,55 18.43,101.71 55.24,140.14 36.81,38.43 81.27,57.59 133.33,57.59 52.06,0 96.52,-19.2 133.33,-57.59 36.81,-38.38 55.24,-85.14 55.24,-140.14 0,-55 -18.38,-101.71 -55.24,-140.14zm-132.98 -129.21c46.81,0 90.14,11.91 129.9,35.78 39.8,23.87 71.27,56.13 94.46,96.81 23.19,40.68 35,85.14 35.44,133.33 0.44,0.88 0.69,1.91 0.69,3.09 0,1.13 -0.2,2.4 -0.69,3.77 -0.44,48.18 -12.3,92.64 -35.44,133.28 -23.19,40.68 -54.65,72.98 -94.46,96.8 -39.75,23.87 -83.09,35.83 -129.9,35.83 -47.3,0 -90.93,-12.16 -130.93,-36.47 -40,-24.31 -71.62,-57.14 -94.79,-98.52 -23.19,-41.37 -34.8,-86.27 -34.8,-134.65 0,-48.43 11.57,-93.33 34.8,-134.7 23.18,-41.37 54.74,-74.11 94.79,-98.18 40,-24.12 83.67,-36.13 130.93,-36.13l0 -0.04zm602.13 0c60,0 113.43,19.12 160.24,57.3 3.63,2.7 6.81,6.81 9.56,12.25 2.7,5.49 4.07,10.69 4.07,15.69 0,8.19 -2.74,15.69 -8.19,22.5 -3.19,3.63 -7.5,6.72 -12.94,9.22 -5.44,2.5 -10.44,3.77 -15,3.77 -8.63,0 -16.13,-2.5 -22.5,-7.5 -34.12,-27.74 -72.5,-41.62 -115.24,-41.62 -52.3,0 -96.81,19.21 -133.67,57.64 -36.81,38.43 -55.24,85.14 -55.24,140.14 0,55 18.43,101.71 55.24,140.14 36.81,38.43 81.37,57.59 133.67,57.59 34.07,0 65.44,-8.87 94.11,-26.56 28.63,-17.74 51.37,-41.37 68.18,-70.93 2.7,-5 7.16,-9.31 13.28,-12.94 6.13,-3.63 12.16,-5.44 18.04,-5.44 6.37,0 12.25,1.57 17.74,4.75 5,2.74 9.31,7.16 12.94,13.28 3.63,6.13 5.44,12.16 5.44,18.09 0,6.37 -1.57,12.3 -4.75,17.74 -23.19,40.49 -54.65,72.83 -94.46,97.19 -39.75,24.31 -83.33,36.47 -130.58,36.47 -47.3,0 -90.93,-12.16 -130.93,-36.47 -40,-24.31 -71.62,-57.14 -94.8,-98.52 -23.19,-41.37 -34.8,-86.27 -34.8,-134.65 0,-48.43 11.57,-93.33 34.8,-134.7 23.19,-41.37 54.75,-74.11 94.8,-98.18 40,-24.12 83.67,-36.13 130.93,-36.13l0.06 -0.12zm560.52 233.22c10,0 18.53,3.43 25.54,10.24 7.06,6.81 10.59,15.24 10.59,25.24 0,10 -3.53,18.53 -10.59,25.59 -7.06,7.06 -15.59,10.59 -25.54,10.59l-122.1 0.69c-10,0 -18.53,-3.53 -25.59,-10.59 -7.06,-7.06 -10.54,-15.34 -10.54,-24.9l0 -0.69c0,-9.56 3.53,-17.84 10.54,-24.9 7.06,-7.06 15.59,-10.59 25.59,-10.59l122.1 -0.69 0 0.01zm45 241.41c9.56,0 17.84,3.53 24.9,10.59 7.06,7.06 10.59,15.44 10.59,25.24 0,9.8 -3.38,18.19 -10.2,25.24 -6.81,7.06 -15.24,10.59 -25.24,10.59l-257.78 0.69 0 0c-10,0 -18.38,-3.33 -25.24,-9.9 -6.81,-6.57 -10.44,-14.66 -10.93,-24.21 0,-0.44 0,-0.93 0,-1.37l-0.69 -484.14 0 0c0,-9.56 3.28,-17.74 9.9,-24.56 6.57,-6.81 14.66,-10.44 24.21,-10.93 0.44,-0.44 1.13,-0.69 2.06,-0.69l229.11 0c10,0 18.38,3.43 25.24,10.24 6.81,6.81 10.24,15.24 10.24,25.24 0,10 -3.38,18.53 -10.24,25.59 -6.81,7.06 -15.24,10.59 -25.24,10.59l-193.67 0.69 0.69 411.89 222.3 -0.69 -0.01 -0.1zm349.15 -482.08c0,0 0.25,0 0.69,0 6.37,0 12.7,2.16 19.07,6.47 6.37,4.31 10.69,9.41 12.99,15.34l197.05 483.5c1.81,4.56 2.74,9.07 2.74,13.63 0,6.37 -2.16,12.74 -6.47,19.12 -4.31,6.37 -9.41,10.69 -15.34,12.94 -4.07,1.81 -8.43,2.74 -12.94,2.74 -6.37,0 -12.7,-2.16 -19.07,-6.47 -6.37,-4.31 -10.93,-9.46 -13.63,-15.34l-54.56 -134.3 -220.24 0.69 -54.56 133.66c-2.7,5.93 -7.16,11.03 -13.28,15.34 -6.13,4.31 -12.6,6.47 -19.41,6.47 -4.56,0 -8.87,-0.88 -12.94,-2.74 -5.93,-2.25 -11.03,-6.57 -15.34,-12.94 -4.31,-6.37 -6.47,-12.74 -6.47,-19.12 0,-4.56 0.88,-9.07 2.7,-13.63l197.05 -483.5c2.3,-5.93 6.62,-11.03 12.99,-15.34 6.37,-4.31 12.7,-6.47 19.07,-6.47l-0.1 -0.05zm-80.43 325.96l161.61 0 -80.44 -198.42 -81.17 198.42zm754.53 -316.75c7.06,-7.06 15.44,-10.54 25.24,-10.54 9.75,0 18.19,3.53 25.24,10.54 7.06,7.06 10.59,15.59 10.59,25.59l0 484.14c0,9.56 -3.53,17.84 -10.59,24.9 -7.06,7.06 -15.59,10.59 -25.59,10.59 -5,0 -10.34,-1.47 -16.03,-4.46 -5.69,-2.94 -9.9,-6.47 -12.6,-10.59l-283.72 -393.46 0 373.02c0,9.56 -3.53,17.84 -10.59,24.9 -7.06,7.06 -15.44,10.59 -25.24,10.59 -9.75,0 -18.19,-3.53 -25.24,-10.59 -7.06,-7.06 -10.59,-15.34 -10.59,-24.9l-0.69 -484.14c0,-10 3.53,-18.53 10.54,-25.59 7.06,-7.06 15.59,-10.54 25.59,-10.54 10.93,0 20,4.31 27.25,12.94 0.93,0.93 1.62,1.81 2.06,2.7l283.67 392.78 0 -372.34c0,-10 3.53,-18.53 10.59,-25.59l0.11 0.05z"/>
   <path class="fil4" d="M2881.77 2167.13c4.61,119.31 -119.46,257.44 -328.71,282 0,0 291.41,-143.43 247.79,-419.05 0,0 76.17,17.4 80.93,137.1l-0.01 -0.05zm-2798.12 565.96c474.14,-462.73 1129.9,-98.23 1514.69,74.16 384.4,172.64 529.93,48.58 529.93,48.58 -245.63,-65.29 -775.76,-468.66 -1307.94,-489.54 -532.24,-20.54 -736.68,366.75 -736.68,366.75l0 0.05zm2320.78 26.27c-141.61,-2.4 -357.73,-148.72 -357.73,-148.72 0,0 359.4,99.41 524.83,59.8 0,0 -25.39,91.32 -167.1,88.92zm-246.65 -177.34c-310.92,-72.99 -906.39,-400.03 -1199.07,-271.9 0,0 322.98,35.15 648.65,202.2 291.46,149.65 479.35,266.8 719.34,303.37 282.29,42.94 349.11,-216.41 349.11,-216.41 0,0 -207.05,55.78 -518.02,-17.3l-0.01 0.04zm574.04 -618.02c0,0 47.84,170.83 -49.36,317.98 -97.2,147.3 -377.05,239.55 -1002.32,56.76 0,0 408.86,189.9 662.67,214.01 260.38,24.66 562.04,-55.88 599.49,-303.76 37.2,-247.79 -145.63,-332.49 -210.48,-285.04l0 0.05z"/>
   <path class="fil5" d="M905.27 239.27l0.29 -0.39 102.94 -0.74c194.45,13.33 544.69,75.1 451.06,350.23 0,0 237.34,71.91 69.07,267.2 0,0 47.99,-216.41 -252.74,-182.05 0,0 267,-279.21 -370.57,-434.2l-0.05 -0.05z"/>
   <path class="fil5" d="M462.98 484.7l40.34 -4.85c143.33,-4.46 424.2,13.63 371.6,230.87 0,0 182.05,37.74 69.56,194.99 0,0 21.32,-164.9 -201.07,-118.92 0,0 163.96,-209.31 -240.09,-288.47 -23.92,-2.89 -52.55,-4.07 -40.34,-13.63l0 0.01z"/>
   <path class="fil3" d="M710.72 1589.06c6.81,0 13.28,2.16 19.41,6.47 6.13,4.31 10.59,9.41 13.28,15.34l164.99 404.35 164.36 -404.35c2.74,-5.88 7.25,-11.03 13.63,-15.34 6.37,-4.31 12.74,-6.47 19.12,-6.47 4.56,0 8.87,0.88 12.94,2.74 5.93,2.25 11.03,6.57 15.34,12.94 4.36,6.37 6.47,12.74 6.47,19.12 0,4.56 -0.93,9.07 -2.74,13.63l-197.05 483.46c-2.25,5.93 -6.57,11.03 -12.94,15.34 -6.37,4.31 -12.84,6.47 -19.46,6.47 -6.57,0 -13.09,-2.16 -19.41,-6.47 -6.37,-4.31 -10.69,-9.41 -12.94,-15.34l-197.05 -483.46c-1.81,-4.56 -2.74,-9.07 -2.74,-13.63 0,-6.37 2.16,-12.74 6.47,-19.12 4.31,-6.37 9.46,-10.69 15.34,-12.94 4.07,-1.81 8.43,-2.74 12.94,-2.74l0.04 0zm521.99 9.22c7.06,-7.06 15.44,-10.59 25.24,-10.59 9.75,0 18.19,3.53 25.24,10.59 7.06,7.06 10.59,15.59 10.59,25.59l0.69 484.1c0,9.56 -3.53,17.84 -10.59,24.9 -7.06,7.06 -15.44,10.59 -25.24,10.59 -9.75,0 -18.19,-3.53 -25.24,-10.59 -7.06,-7.06 -10.54,-15.34 -10.54,-24.9l-0.69 -484.1c0,-10 3.53,-18.53 10.59,-25.59l-0.05 0zm393.08 231.51c10,0 18.53,3.43 25.59,10.24 7.06,6.81 10.54,15.24 10.54,25.24 0,10 -3.53,18.53 -10.54,25.54 -7.06,7.06 -15.59,10.59 -25.59,10.59l-122.05 0.69c-10,0 -18.53,-3.53 -25.59,-10.54 -7.06,-7.06 -10.54,-15.34 -10.54,-24.9l0 -0.69c0,-9.56 3.53,-17.84 10.54,-24.9 7.06,-7.06 15.59,-10.59 25.59,-10.59l122.05 -0.69 0 0.01zm44.99 241.36c9.56,0 17.84,3.53 24.9,10.59 7.06,7.06 10.59,15.44 10.59,25.24 0,9.75 -3.38,18.19 -10.2,25.24 -6.81,7.06 -15.24,10.59 -25.24,10.59l-257.74 0.69 0 0c-10,0 -18.43,-3.28 -25.24,-9.9 -6.81,-6.57 -10.44,-14.66 -10.88,-24.21 0,-0.44 0,-0.93 0,-1.37l-0.69 -484.1 0 0c0,-9.56 3.28,-17.74 9.9,-24.56 6.57,-6.81 14.66,-10.44 24.21,-10.93 0.44,-0.44 1.13,-0.69 2.06,-0.69l229.11 0c10,0 18.43,3.43 25.24,10.24 6.81,6.81 10.24,15.24 10.24,25.24 0,10 -3.43,18.53 -10.24,25.59 -6.81,7.06 -15.24,10.59 -25.24,10.59l-193.62 0.69 0.69 411.85 222.3 -0.69 -0.15 -0.1zm310.83 -482.09c0,0 0.2,0 0.69,0 6.37,0 12.79,2.21 19.07,6.47 6.32,4.26 10.59,9.56 12.99,15.34l57.94 141.17 57.3 -141.17c2.45,-6.03 7.25,-11.03 13.63,-15.34 6.37,-4.31 12.74,-6.47 19.12,-6.47 4.56,0 8.87,1.08 12.94,2.74 5.83,2.35 11.08,6.62 15.34,12.94 4.31,6.32 6.47,12.74 6.47,19.12 0,4.56 -0.93,9.17 -2.74,13.63l-84.56 207.3 69.56 170.48 165.04 -404.35c2.4,-5.88 6.62,-11.03 12.94,-15.34 6.32,-4.26 12.74,-6.47 19.12,-6.47 4.56,0 9.12,0.98 13.63,2.74 5.83,2.25 11.03,6.57 15.34,12.94 4.31,6.37 6.47,12.74 6.47,19.12 0,4.56 -0.93,9.17 -2.74,13.63l-197.74 483.46c-2.35,5.78 -6.57,11.03 -12.94,15.34 -6.37,4.31 -12.74,6.47 -19.12,6.47 -6.37,0 -12.7,-2.16 -19.07,-6.47 -6.37,-4.31 -10.59,-9.46 -12.94,-15.34l-75 -183.42 -75 183.42c-2.35,5.78 -6.57,11.03 -12.94,15.34 -6.37,4.31 -12.84,6.47 -19.46,6.47 -6.57,0 -13.09,-2.16 -19.41,-6.47 -6.37,-4.31 -10.59,-9.46 -12.94,-15.34l-197.05 -483.46c-1.86,-4.56 -2.74,-9.07 -2.74,-13.63 0,-6.37 2.16,-12.74 6.47,-19.12 4.31,-6.37 9.51,-10.59 15.34,-12.94 4.07,-1.67 8.43,-2.74 12.94,-2.74 6.81,0 13.33,2.21 19.41,6.47 6.08,4.26 10.88,9.41 13.28,15.34l164.99 404.35 68.87 -170.48 -84.56 -207.3c-1.86,-4.56 -2.7,-9.07 -2.7,-13.63 0,-6.37 2.16,-12.74 6.47,-19.12 4.31,-6.37 9.46,-10.69 15.34,-12.94 4.51,-1.76 8.87,-2.74 12.94,-2.74l0.01 0z"/>
  </g>
 </g>
 <g id="Слой_x0020_1_0">
  <metadata id="CorelCorpID_1Corel-Layer"/>
 </g>
</svg>
