<?xml version="1.0" encoding="UTF-8"?>
<!DOCTYPE svg PUBLIC "-//W3C//DTD SVG 1.1//EN" "http://www.w3.org/Graphics/SVG/1.1/DTD/svg11.dtd">
<!-- Creator: CorelDRAW -->
<svg xmlns="http://www.w3.org/2000/svg" xml:space="preserve" width="4.83588in" height="0.60728in" version="1.1" style="shape-rendering:geometricPrecision; text-rendering:geometricPrecision; image-rendering:optimizeQuality; fill-rule:evenodd; clip-rule:evenodd"
viewBox="0 0 6026.44 756.79"
 xmlns:xlink="http://www.w3.org/1999/xlink"
 xmlns:xodm="http://www.corel.com/coreldraw/odm/2003">
 <defs>
  <style type="text/css">
   <![CDATA[
    .fil1 {fill:#FFCC29;fill-rule:nonzero}
    .fil0 {fill:#5CC6D0;fill-rule:nonzero}
   ]]>
  </style>
 </defs>
 <g id="Слой_x0020_1">
  <metadata id="CorelCorpID_0Corel-Layer"/>
  <g id="_2513328367184">
   <path class="fil0" d="M535.78 188.04c-50.14,-52.31 -110.66,-78.47 -181.54,-78.47 -70.88,0 -131.39,26.16 -181.54,78.47 -50.14,52.31 -75.21,115.92 -75.21,190.82 0,74.9 25.07,138.51 75.21,190.82 50.15,52.31 110.66,78.46 181.54,78.46 70.88,0 131.39,-26.16 181.54,-78.46 50.14,-52.31 75.21,-115.92 75.21,-190.82 0,-74.9 -25.07,-138.51 -75.21,-190.82zm-181.07 -175.96c63.76,0 122.73,16.25 176.89,48.75 54.17,32.5 97.04,76.45 128.61,131.86 31.57,55.41 47.66,115.92 48.29,181.54 0.62,1.24 0.93,2.63 0.93,4.18 0,1.55 -0.31,3.25 -0.93,5.11 -0.62,65.62 -16.72,126.13 -48.29,181.53 -31.57,55.41 -74.44,99.36 -128.61,131.86 -54.17,32.5 -113.13,48.75 -176.89,48.75 -64.38,0 -123.81,-16.56 -178.29,-49.68 -54.47,-33.12 -97.5,-77.84 -129.07,-134.18 -31.57,-56.33 -47.36,-117.47 -47.36,-183.39 0,-65.93 15.78,-127.06 47.36,-183.4 31.57,-56.33 74.59,-100.9 129.07,-133.71 54.48,-32.81 113.91,-49.21 178.29,-49.21zm819.93 0c81.71,0 154.45,26 218.21,78 4.96,3.71 9.29,9.28 13,16.72 3.71,7.43 5.57,14.55 5.57,21.36 0,11.14 -3.71,21.36 -11.15,30.64 -4.33,4.96 -10.21,9.13 -17.64,12.54 -7.43,3.4 -14.24,5.11 -20.42,5.11 -11.77,0 -21.98,-3.4 -30.64,-10.21 -46.43,-37.76 -98.74,-56.64 -156.93,-56.64 -71.19,0 -131.86,26.16 -182,78.47 -50.14,52.31 -75.21,115.92 -75.21,190.82 0,74.9 25.07,138.51 75.21,190.82 50.15,52.31 110.81,78.46 182,78.46 46.43,0 89.14,-12.07 128.14,-36.21 39,-24.14 69.95,-56.33 92.86,-96.57 3.71,-6.81 9.75,-12.69 18.11,-17.64 8.36,-4.96 16.56,-7.43 24.6,-7.43 8.67,0 16.72,2.16 24.14,6.5 6.81,3.71 12.69,9.75 17.64,18.1 4.95,8.36 7.43,16.56 7.43,24.61 0,8.66 -2.17,16.71 -6.5,24.14 -31.57,55.1 -74.44,99.2 -128.61,132.32 -54.17,33.12 -113.44,49.68 -177.82,49.68 -64.38,0 -123.81,-16.56 -178.29,-49.68 -54.47,-33.12 -97.5,-77.84 -129.07,-134.18 -31.57,-56.33 -47.36,-117.47 -47.36,-183.39 0,-65.93 15.78,-127.06 47.36,-183.4 31.57,-56.33 74.59,-100.9 129.07,-133.71 54.48,-32.81 113.91,-49.21 178.29,-49.21zm763.29 317.57c13.61,0 25.22,4.65 34.82,13.93 9.6,9.29 14.39,20.74 14.39,34.36 0,13.62 -4.79,25.23 -14.39,34.82 -9.6,9.6 -21.2,14.4 -34.82,14.4l-166.21 0.93c-13.62,0 -25.23,-4.8 -34.82,-14.39 -9.59,-9.6 -14.39,-20.9 -14.39,-33.89l0 -0.93c0,-13 4.8,-24.3 14.39,-33.89 9.6,-9.59 21.2,-14.39 34.82,-14.39l166.21 -0.93zm61.28 328.72c13,0 24.3,4.8 33.89,14.4 9.6,9.59 14.4,21.05 14.4,34.35 0,13.31 -4.65,24.76 -13.93,34.36 -9.29,9.6 -20.74,14.4 -34.36,14.4l-351 0.93 0 0c-13.62,0 -25.07,-4.49 -34.36,-13.46 -9.28,-8.98 -14.24,-19.96 -14.86,-32.97 0,-0.62 0,-1.24 0,-1.86l-0.93 -659.29 0 0c0,-13 4.48,-24.14 13.46,-33.43 8.98,-9.29 19.96,-14.24 32.97,-14.86 0.62,-0.62 1.55,-0.93 2.79,-0.93l312 0c13.61,0 25.07,4.65 34.35,13.93 9.29,9.29 13.93,20.74 13.93,34.36 0,13.62 -4.64,25.23 -13.93,34.82 -9.28,9.6 -20.74,14.4 -34.35,14.4l-263.72 0.93 0.93 560.86 302.72 -0.93zm475.43 -656.5c0,0 0.31,0 0.93,0 8.67,0 17.33,2.94 26,8.82 8.67,5.88 14.55,12.84 17.64,20.89l268.36 658.36c2.48,6.19 3.71,12.38 3.71,18.57 0,8.67 -2.94,17.33 -8.82,26 -5.88,8.66 -12.84,14.55 -20.89,17.64 -5.57,2.47 -11.45,3.71 -17.64,3.71 -8.67,0 -17.33,-2.94 -26,-8.82 -8.66,-5.88 -14.86,-12.84 -18.57,-20.9l-74.29 -182.93 -299.93 0.93 -74.29 182c-3.71,8.05 -9.75,15.01 -18.11,20.9 -8.36,5.88 -17.18,8.82 -26.46,8.82 -6.19,0 -12.07,-1.24 -17.64,-3.71 -8.05,-3.1 -15.01,-8.98 -20.89,-17.64 -5.88,-8.67 -8.82,-17.33 -8.82,-26 0,-6.19 1.24,-12.38 3.71,-18.57l268.35 -658.36c3.1,-8.05 8.98,-15.01 17.64,-20.89 8.67,-5.88 17.33,-8.82 26,-8.82zm-109.57 443.86l220.07 0 -109.57 -270.21 -110.5 270.21zm1027.47 -431.32c9.6,-9.6 21.05,-14.4 34.36,-14.4 13.31,0 24.76,4.8 34.36,14.4 9.6,9.6 14.39,21.2 14.39,34.82l0 659.29c0,13 -4.79,24.3 -14.39,33.89 -9.6,9.6 -21.2,14.4 -34.82,14.4 -6.81,0 -14.08,-2.01 -21.82,-6.03 -7.74,-4.02 -13.46,-8.82 -17.18,-14.4l-386.29 -535.78 0 507.93c0,13 -4.79,24.3 -14.39,33.89 -9.6,9.6 -21.05,14.4 -34.36,14.4 -13.32,0 -24.77,-4.8 -34.36,-14.4 -9.6,-9.59 -14.4,-20.89 -14.4,-33.89l-0.93 -659.29c0,-13.62 4.8,-25.22 14.39,-34.82 9.6,-9.6 21.2,-14.4 34.83,-14.4 14.86,0 27.23,5.88 37.14,17.64 1.24,1.24 2.17,2.48 2.79,3.71l386.29 534.86 0 -507c0,-13.62 4.8,-25.22 14.39,-34.82z"/>
   <path class="fil1" d="M3634.43 1.86c9.29,0 18.11,2.94 26.46,8.82 8.36,5.88 14.4,12.84 18.11,20.89l224.71 550.65 223.78 -550.65c3.71,-8.05 9.91,-15.01 18.57,-20.89 8.67,-5.88 17.33,-8.82 26,-8.82 6.19,0 12.07,1.24 17.64,3.71 8.05,3.1 15.01,8.98 20.89,17.64 5.88,8.66 8.82,17.33 8.82,26 0,6.19 -1.24,12.38 -3.71,18.58l-268.36 658.35c-3.1,8.05 -8.97,15.01 -17.64,20.9 -8.66,5.88 -17.49,8.82 -26.46,8.82 -8.97,0 -17.8,-2.94 -26.46,-8.82 -8.66,-5.88 -14.55,-12.84 -17.64,-20.9l-268.35 -658.35c-2.48,-6.19 -3.71,-12.38 -3.71,-18.58 0,-8.66 2.94,-17.33 8.82,-26 5.88,-8.66 12.84,-14.55 20.89,-17.64 5.57,-2.48 11.45,-3.71 17.64,-3.71zm710.82 12.54c9.6,-9.6 21.05,-14.4 34.36,-14.4 13.31,0 24.76,4.8 34.36,14.4 9.59,9.6 14.39,21.2 14.39,34.82l0.93 659.29c0,13 -4.79,24.3 -14.39,33.89 -9.6,9.6 -21.05,14.4 -34.36,14.4 -13.31,0 -24.76,-4.8 -34.35,-14.4 -9.6,-9.59 -14.4,-20.89 -14.4,-33.89l-0.93 -659.29c0,-13.62 4.8,-25.22 14.39,-34.82zm535.32 315.25c13.61,0 25.22,4.65 34.82,13.93 9.6,9.29 14.39,20.74 14.39,34.36 0,13.62 -4.79,25.23 -14.39,34.82 -9.6,9.6 -21.2,14.4 -34.82,14.4l-166.21 0.93c-13.62,0 -25.23,-4.8 -34.82,-14.39 -9.59,-9.6 -14.39,-20.9 -14.39,-33.89l0 -0.93c0,-13 4.8,-24.3 14.39,-33.89 9.6,-9.59 21.2,-14.39 34.82,-14.39l166.21 -0.93zm61.28 328.72c13,0 24.3,4.8 33.89,14.4 9.6,9.59 14.4,21.05 14.4,34.35 0,13.31 -4.65,24.76 -13.93,34.36 -9.29,9.6 -20.74,14.4 -34.36,14.4l-351 0.93 0 0c-13.62,0 -25.07,-4.49 -34.36,-13.46 -9.28,-8.98 -14.24,-19.96 -14.86,-32.97 0,-0.62 0,-1.24 0,-1.86l-0.93 -659.29 0 0c0,-13 4.48,-24.14 13.46,-33.43 8.98,-9.29 19.96,-14.24 32.97,-14.86 0.62,-0.62 1.55,-0.93 2.79,-0.93l312 0c13.61,0 25.07,4.65 34.35,13.93 9.29,9.29 13.93,20.74 13.93,34.36 0,13.62 -4.64,25.23 -13.93,34.82 -9.28,9.6 -20.74,14.4 -34.35,14.4l-263.72 0.93 0.93 560.86 302.72 -0.93zm498.64 -656.5c0,0 0.31,0 0.93,0 8.66,0 17.33,2.94 26,8.82 8.66,5.88 14.55,12.84 17.64,20.89l78.93 192.22 78 -192.22c3.71,-8.05 9.91,-15.01 18.57,-20.89 8.67,-5.88 17.33,-8.82 26,-8.82 6.19,0 12.07,1.24 17.64,3.71 8.05,3.1 15.01,8.98 20.89,17.64 5.88,8.66 8.82,17.33 8.82,26 0,6.19 -1.24,12.38 -3.71,18.58l-115.14 282.28 94.71 232.15 224.72 -550.65c3.1,-8.05 8.97,-15.01 17.64,-20.89 8.66,-5.88 17.33,-8.82 26,-8.82 6.19,0 12.38,1.24 18.57,3.71 8.05,3.1 15.01,8.98 20.9,17.64 5.88,8.66 8.82,17.33 8.82,26 0,6.19 -1.24,12.38 -3.71,18.58l-269.29 658.35c-3.1,8.05 -8.98,15.01 -17.64,20.9 -8.67,5.88 -17.33,8.82 -26,8.82 -8.66,0 -17.33,-2.94 -26,-8.82 -8.66,-5.88 -14.55,-12.84 -17.64,-20.9l-102.14 -249.78 -102.14 249.78c-3.1,8.05 -8.97,15.01 -17.64,20.9 -8.66,5.88 -17.49,8.82 -26.46,8.82 -8.97,0 -17.8,-2.94 -26.46,-8.82 -8.66,-5.88 -14.55,-12.84 -17.64,-20.9l-268.36 -658.35c-2.48,-6.19 -3.71,-12.38 -3.71,-18.58 0,-8.66 2.94,-17.33 8.82,-26 5.88,-8.66 12.85,-14.55 20.9,-17.64 5.57,-2.48 11.45,-3.71 17.64,-3.71 9.29,0 18.11,2.94 26.46,8.82 8.36,5.88 14.4,12.84 18.11,20.89l224.71 550.65 93.79 -232.15 -115.15 -282.28c-2.48,-6.19 -3.71,-12.38 -3.71,-18.58 0,-8.66 2.94,-17.33 8.82,-26 5.88,-8.66 12.84,-14.55 20.89,-17.64 6.19,-2.48 12.07,-3.71 17.64,-3.71z"/>
  </g>
 </g>
</svg>
