<?xml version="1.0" encoding="UTF-8"?>
<!DOCTYPE svg PUBLIC "-//W3C//DTD SVG 1.1//EN" "http://www.w3.org/Graphics/SVG/1.1/DTD/svg11.dtd">
<!-- Creator: CorelDRAW -->
<svg xmlns="http://www.w3.org/2000/svg" xml:space="preserve" width="1.05619in" height="1.01554in" version="1.1" style="shape-rendering:geometricPrecision; text-rendering:geometricPrecision; image-rendering:optimizeQuality; fill-rule:evenodd; clip-rule:evenodd"
viewBox="0 0 422.86 406.59"
 xmlns:xlink="http://www.w3.org/1999/xlink"
 xmlns:xodm="http://www.corel.com/coreldraw/odm/2003">
 <defs>
  <style type="text/css">
   <![CDATA[
    .fil0 {fill:#DB2342;fill-rule:nonzero}
   ]]>
  </style>
 </defs>
 <g id="Слой_x0020_1">
  <metadata id="CorelCorpID_0Corel-Layer"/>
  <path class="fil0" d="M397.56 195.15c0,98.08 -76.66,179.72 -174.41,185.71 -7.76,0.5 -15.6,0.5 -23.53,0 -97.74,-6.07 -174.32,-87.71 -174.32,-185.71l0 -86.78c3.2,0.67 6.41,1.35 9.62,2.19 13.32,3.21 26.31,7.59 38.71,13.41 5.06,2.28 10.04,4.81 14.93,7.59 -1.1,2.19 -2.19,4.38 -3.21,6.58 -0.51,1.1 -1.01,2.11 -1.43,3.12 -0.84,1.94 -1.6,3.88 -2.36,5.82 0,0.17 -0.08,0.25 -0.17,0.42 -0.76,2.03 -1.43,4.05 -2.11,6.16 -0.34,1.1 -0.67,2.28 -1.01,3.37 -0.67,2.19 -1.26,4.47 -1.77,6.66 -0.51,1.94 -0.93,3.88 -1.27,5.91 -0.67,3.29 -1.26,6.66 -1.6,10.03 -0.34,2.7 -0.59,5.4 -0.76,8.1l0 0.42c-0.17,2.61 -0.25,5.31 -0.25,7.93 -0.08,36.01 13.75,71.85 40.57,98.68 19.31,19.31 43.26,32.22 69.41,37.61 5.65,1.26 11.3,2.11 17.12,2.53l0 0.51 23.36 0 0 -0.51c5.73,-0.42 11.47,-1.27 17.12,-2.53 8.43,-1.69 16.62,-4.22 24.46,-7.42 16.62,-6.91 31.96,-17.03 45.04,-30.19 3.37,-3.37 6.5,-6.83 9.44,-10.46 2.36,-2.87 4.56,-5.82 6.58,-8.86 1.1,-1.43 2.11,-3.04 3.04,-4.55 2.03,-3.12 3.88,-6.33 5.57,-9.62 2.11,-3.96 4.05,-8.1 5.73,-12.31 1.69,-4.22 3.2,-8.43 4.47,-12.74 3.88,-13.07 5.82,-26.56 5.82,-40.06 0,-2.62 -0.08,-5.14 -0.25,-7.76l0 -0.76c-0.17,-2.62 -0.42,-5.32 -0.76,-7.93 -1.52,-12.99 -4.98,-25.89 -10.29,-38.12 -0.42,-1.18 -0.93,-2.28 -1.43,-3.37 -1.1,-2.28 -2.19,-4.47 -3.29,-6.66 4.89,-2.78 9.87,-5.32 14.93,-7.67l0.09 0c12.4,-5.74 25.39,-10.21 38.79,-13.41 3.12,-0.76 6.24,-1.43 9.44,-2.11l0 86.78zm-266.5 -79.02l4.47 -4.47 0.34 -0.34 75.56 -75.56 80.37 80.37c2.53,2.53 4.98,5.14 7.25,7.93 2.7,3.29 5.14,6.66 7.42,10.12 2.36,3.54 4.47,7.25 6.32,11.05l0.08 0c0.84,1.6 1.6,3.2 2.28,4.81 0.51,1.1 1.02,2.28 1.43,3.37 0.59,1.35 1.1,2.78 1.6,4.13 1.94,5.23 3.37,10.46 4.47,15.86 0.42,2.02 0.84,4.05 1.1,6.07 0.08,0.42 0.17,1.01 0.17,1.52 0.25,1.6 0.51,3.29 0.59,4.97 0.17,1.1 0.25,2.2 0.25,3.21 2.03,31.79 -9.27,64.01 -32.97,87.71 -13.41,13.41 -29.52,23.03 -47.23,28.34 -1.27,0.42 -2.62,0.84 -3.96,1.1 -0.76,0.25 -1.43,0.42 -2.19,0.59 -3.12,0.76 -6.24,1.44 -9.36,1.86 -0.25,0.09 -0.5,0.09 -0.76,0.09 -1.35,0.25 -2.7,0.42 -4.05,0.51 0.25,-5.74 0.76,-11.47 1.52,-17.12 1.52,-12.23 4.05,-24.2 7.5,-35.84 11.89,-38.96 34.58,-73.79 66.04,-100.44 -1.94,-4.3 -4.22,-8.43 -6.92,-12.48l-6.24 -9.44c-0.17,0 -0.34,0.17 -0.51,0.42 -28.09,23.02 -50.18,51.87 -65.03,84.17 -3.46,7.59 -6.58,15.35 -9.19,23.36 -2.61,-7.93 -5.73,-15.69 -9.19,-23.28 -14.84,-32.3 -36.94,-61.15 -65.02,-84.25 -0.17,-0.25 -0.34,-0.42 -0.5,-0.51l-6.24 9.44c-1.35,2.03 -2.53,4.13 -3.71,6.16 -1.1,2.11 -2.19,4.22 -3.2,6.41l0 0.09c31.46,26.57 54.23,61.48 65.95,100.53 3.54,11.55 6.07,23.45 7.59,35.67 0.68,5.65 1.18,11.38 1.43,17.12 -1.35,-0.09 -2.7,-0.25 -4.05,-0.51 -0.25,0 -0.42,0 -0.67,-0.09 -2.87,-0.42 -5.65,-0.93 -8.43,-1.6 -1.09,-0.25 -2.11,-0.51 -3.12,-0.76l0 -0.08c-0.17,0 -0.25,0 -0.34,-0.08 -1.27,-0.26 -2.45,-0.59 -3.71,-1.02 -1.18,-0.34 -2.36,-0.76 -3.54,-1.09 -1.27,-0.51 -2.53,-0.93 -3.79,-1.44 -1.44,-0.51 -2.95,-1.1 -4.39,-1.77 -1.43,-0.59 -2.87,-1.27 -4.3,-1.94 -11.39,-5.48 -21.93,-12.9 -31.12,-22.1 -23.61,-23.7 -34.92,-56 -32.89,-87.79 0,-1.1 0.08,-2.11 0.25,-3.2 0.08,-1.6 0.34,-3.29 0.59,-4.98 0,-0.42 0.08,-0.93 0.17,-1.52 0.25,-2.11 0.67,-4.22 1.18,-6.24 0.25,-1.6 0.59,-3.12 1.01,-4.64 0.34,-1.6 0.76,-3.12 1.26,-4.64 0.76,-2.61 1.6,-5.23 2.61,-7.76 0.84,-2.44 1.86,-4.72 2.95,-7.08 0.09,-0.25 0.17,-0.51 0.34,-0.76 0.42,-1.01 0.93,-2.03 1.52,-2.95 1.77,-3.88 3.97,-7.59 6.33,-11.22 2.27,-3.46 4.81,-6.83 7.42,-10.03 2.36,-2.78 4.72,-5.4 7.25,-7.93zm277.63 -35.09c-9.36,1.1 -18.13,2.7 -26.65,4.89 -15.94,3.79 -31.37,9.28 -46.13,16.28 -0.17,0.08 -0.25,0.08 -0.34,0.25 -4.97,2.27 -9.87,4.89 -14.67,7.67l-0.17 -0.34 -0.5 0.34c-3.21,-4.13 -6.75,-8.1 -10.54,-11.89l-98.25 -98.25 -97.49 97.5 -0.76 0.76c-3.8,3.8 -7.34,7.76 -10.54,11.89l-0.51 -0.34 -0.17 0.34c-4.81,-2.78 -9.7,-5.4 -14.67,-7.76 -0.17,-0.08 -0.25,-0.08 -0.34,-0.17 -14.76,-7 -30.19,-12.48 -46.05,-16.28 -8.86,-2.19 -17.8,-3.79 -26.65,-4.98l-14.25 -1.77 0 115.96c0,111.41 87.04,204.01 198.19,211.01 4.39,0.25 8.77,0.42 13.24,0.42 4.47,0 8.86,-0.17 13.24,-0.42 111.16,-6.83 198.19,-99.52 198.19,-211.01l0 -115.79 -14.17 1.69z"/>
 </g>
</svg>
